<svg width="1071" height="462" viewBox="0 0 1071 462" fill="none" xmlns="http://www.w3.org/2000/svg">
<path d="M182.452 0.946244C214.892 1.00481 257.618 1.84377 289.978 2.63963C299.925 2.88618 294.853 3.2328 301.916 3.42622C313.625 3.74909 324.579 3.78923 336.284 4.06204C338.115 4.10537 339.974 4.15509 341.864 4.21346C346.324 4.35311 340.749 4.93426 345.444 5.06573C371.236 5.78321 395.628 6.02779 421.747 6.64891C550.437 9.99117 676.859 12.0937 807.001 20.3946C827.592 22.9615 847.46 20.1167 873.437 31.4158C874.681 32.7362 874.778 35.9999 873.634 37.3796C873.345 37.812 873.243 37.9132 873.095 38.0871C872.953 38.2476 872.809 38.3934 872.666 38.5284C872.378 38.7982 872.09 39.0253 871.801 39.2301C871.222 39.6378 870.633 39.9612 870.005 40.2626C869.507 40.4978 869.207 40.622 868.784 40.7921C867.204 41.4285 865.091 42.0398 863.748 42.3881C860.388 43.2617 857.398 43.8615 854.042 44.4897C847.718 45.6544 841.404 46.5925 834.997 47.4819C822.611 49.1885 809.932 50.6589 798.354 51.9853C793.068 52.5854 796.281 52.8327 795.278 52.9892C780.267 55.3103 784.784 53.6353 774.964 54.4555C734.862 57.7571 690.691 61.2538 652.166 64.4214C635.848 65.7563 652.326 65.6878 635.812 66.269C634.662 66.3103 638.776 65.3752 634.274 65.6444C624.084 66.2575 604.793 67.7762 596.924 68.2891C581.694 69.2814 579.22 69.4618 564.837 70.4647C545.206 71.8255 521.775 73.119 500.747 74.6787C496.229 75.0155 502.249 75.2532 495.06 75.8468C487.921 76.4378 468.822 77.6596 462.511 77.9268C456.047 78.2048 458.76 77.5188 457.611 77.4793C448.213 77.1264 426.26 79.9325 423.551 80.1448C404.625 81.604 386.738 82.8127 369.442 83.9191C338.919 85.8755 310.097 87.5196 279.379 89.7151C245.848 92.4562 208.491 94.0043 177.867 99.42C176.669 99.8212 175.502 100.269 174.62 100.738C174.183 100.969 173.831 101.212 173.668 101.364C173.497 101.533 173.564 101.477 173.553 101.481C173.549 101.491 173.523 101.587 173.514 101.801C173.479 106.918 178.645 113.199 183.375 117.936C187.657 121.824 195.655 123.581 202.727 125.583C224.623 129.548 248.428 129.572 273.029 131.089C277.276 131.297 272.285 130.291 277.568 130.548C296.554 131.465 315.486 132.357 334.593 133.28C370.742 135.022 407.005 136.844 443.267 138.853C448.765 139.159 441.64 139.493 447.14 139.838C481.025 141.946 534.528 145.729 554.798 143.785C577.733 144.963 605.594 146.382 626.096 147.931C639.318 148.929 626.391 149.041 642.7 149.504C646.371 149.609 641.635 148.752 647.132 148.957C670.302 149.823 695.535 151.237 718.504 152.03C723.187 152.19 721.93 151.562 723.256 151.525C734.338 151.238 752.865 153.524 756.77 153.819C775.609 155.218 791.369 156.088 807.322 156.919C817.447 157.447 827.406 157.948 838.33 158.572C845.085 158.96 837.198 157.749 843.609 158.092C857.471 158.843 871.672 159.68 885.81 160.685C892.889 161.192 899.886 161.732 906.955 162.396C910.402 162.722 914.009 163.09 917.499 163.54C919.339 163.78 921.047 164.021 922.882 164.364C923.853 164.551 924.688 164.717 925.804 165.049C926.344 165.227 926.915 165.375 927.825 165.917C928.109 166.099 928.335 166.249 928.702 166.606C929.08 166.995 929.479 167.471 929.753 168.351C930.006 169.141 929.916 170.086 929.771 170.562C929.624 171.08 929.48 171.337 929.413 171.481C925.847 178.053 919.599 179.663 914.698 181.307C913.324 181.716 912.452 181.916 911.901 182.018C909.435 182.445 913.36 180.993 910.402 181.677C894.708 183.815 891.787 184.561 877.04 185.329C874.056 185.447 875.698 184.796 875.148 184.767C866.284 184.312 858.872 186.043 856.492 186.196C828.063 188.036 809.649 187.434 782.224 188.855C778.903 189.027 786.337 189.402 777.15 189.836C774.432 189.964 771.65 190.094 768.802 190.225C709.717 192.946 647.426 195.283 589.026 197.175C579.56 197.481 586.294 196.674 585.696 196.634C575.931 196.023 569.651 197.646 566.575 197.825C542.16 199.21 519.284 199.027 502.755 201.348C421.492 204.356 340.517 208.282 259.924 211.918C237.708 212.934 215.871 213.93 193.752 214.971C192.464 215.033 194.725 214.223 192.163 214.35C160.813 215.957 166.889 216.624 146.337 219.384C141.173 220.073 125.267 219.818 123.775 219.849C118.699 219.871 123.832 218.426 122.14 218.492C107.976 219.142 110.47 222.123 91.5838 224.204C91.0032 224.265 93.3675 223.383 91.8045 223.501C86.8206 223.885 81.9649 224.737 77.1194 225.203C69.7824 225.921 65.5301 225.802 58.6792 226.765C55.1008 227.276 50.9003 228.069 45.2278 229.596C43.1809 230.253 46.6282 231.002 30.2854 235.186C28.4547 235.697 24.8466 236.706 20.6232 238.275C18.5072 239.069 16.2558 239.995 14.1165 241.147C12.0756 242.173 9.76572 244.076 9.72257 244.71C9.77789 244.522 9.70866 244.328 9.73475 244.409C9.7584 244.474 9.88931 244.687 10.0931 244.91C10.5038 245.37 11.1613 245.888 11.8453 246.343C13.2352 247.266 14.8188 248.051 16.283 248.71C19.2526 250.036 21.9054 250.938 23.5902 251.517C24.854 251.947 25.7676 252.255 26.431 252.494C29.8 253.678 25.949 253.023 26.4163 253.176C47.9666 258.865 39.8296 256.947 50.9748 259.703C62.1548 262.026 59.2718 258.882 63.9759 258.999C68.6195 259.12 85.1724 261.014 89.2446 261.503C93.3369 262.011 88.1653 262.043 91.8415 262.422C115.849 264.835 102.536 261.72 110.496 261.776C129.177 261.855 143.885 264.734 160.943 265.833C165.505 266.125 161.784 265.458 165.901 265.627C182.229 266.297 192.3 267.445 210.826 267.74C213.14 267.784 220.619 267.52 228.79 267.832C232.201 267.961 235.676 268.2 238.683 268.621C240.076 268.818 236.063 269.152 243.145 269.595C253.459 270.247 272.323 271.214 283.583 271.541C291.819 271.779 282.38 270.505 292.809 271.233C297.48 271.559 288.777 271.674 297.578 272.244C306.127 272.805 328.271 273.75 336.797 274.101C345.165 274.446 340.609 273.6 341.29 273.586C345.323 273.511 361.652 273.9 362.986 273.958C434.925 276.959 501.246 280.795 571.319 283.32C576.816 283.519 573.183 282.686 574.022 282.709C592.852 283.198 577.942 284.402 591.068 285.55C589.233 284.087 596.949 284.656 610.24 285.05C616.636 285.238 613.176 284.559 613.762 284.528C623.259 284.102 629.813 285.425 631.512 285.71C637.77 286.76 644.607 286.104 648.852 286.808C653.113 287.509 643.23 287.884 655.982 288.397C659.571 288.048 650.177 286.364 659.846 286.551C696.189 287.246 764.342 291.068 793.511 292.39C822.741 293.712 832.206 294.019 849.203 294.916C878.443 296.465 869.898 295.247 885.197 295.44C886.017 295.452 886.899 295.467 887.85 295.487C907.07 295.878 897.541 297.835 900.281 298.463C903.021 299.092 906.061 298.701 909.385 299.126C912.685 299.551 905.517 299.582 913.269 300.028C921.345 300.486 942.592 300.535 945.612 300.143C951.627 299.291 941.807 297.65 962.718 299.036C963.887 299.115 960.063 299.559 964.535 299.832C999.114 302.296 1034.55 302.423 1069.03 307.808C1069.3 307.906 1069.56 308.008 1069.82 308.145C1069.98 308.234 1070.09 308.284 1070.28 308.475C1070.37 308.579 1070.46 308.667 1070.51 308.91C1070.56 309.138 1070.46 309.385 1070.39 309.475C1070.31 309.589 1070.19 309.69 1070.12 309.744C1070.05 309.79 1069.99 309.833 1069.91 309.874C1069.84 309.914 1069.76 309.956 1069.68 309.99C1069.62 310.015 1069.56 310.04 1069.5 310.066C1069.37 310.116 1069.23 310.166 1069.08 310.216C1068.96 310.254 1068.85 310.289 1068.72 310.326C1068.13 310.493 1067.73 310.581 1067.13 310.71C1066.69 310.805 1066.11 310.918 1065.6 311.009C1060.67 311.833 1065 310.369 1062.05 310.824C1031.89 314.586 1042.86 314.102 1026.44 317.387C1029.97 315.238 1020.68 315.281 997.769 317.73C983.998 319.195 986.314 319.702 977.562 321.158C974.724 321.618 965.19 322.091 963.284 322.644C957.606 324.395 966.985 324.739 943.248 326.659C942.196 326.742 945.474 325.769 941.84 326.102C934.773 326.75 929.894 327.303 925.274 327.892C915.157 329.2 908.44 330.51 890.902 332.376C871.274 334.467 836.162 337.222 813.767 339.319C814.02 337.345 792.868 339.886 784.52 342.054C769.875 343.446 754.285 345.06 740.222 346.258C735.363 346.673 738.496 345.8 737.878 345.8C728.413 345.775 722.276 347.686 719.12 348.048C685.136 351.888 657.382 353.618 625.021 357.756C623.873 357.904 622.137 359.428 613.371 359.298C612.802 359.285 623.46 357.625 608.19 359.073C592.928 360.52 564.06 362.618 542.934 365.313C537.818 365.964 524.947 368.323 514.463 368.489C513.07 368.509 514.544 367.976 512.53 367.957C506.032 367.904 502.541 369.614 494.86 369.203C487.199 368.79 471.176 369.486 449.965 372.366C449.281 372.456 444.26 374.032 437.577 374.67C426.87 375.69 411.56 376.965 400.399 378.068C395.103 378.591 398.559 378.926 397.641 379.028C374.072 381.589 354.853 383.307 333.629 385.182C322.129 386.201 310.739 387.199 297.184 388.458C290.063 389.117 269.828 392.056 256.06 392.722C240.964 393.461 255.99 388.602 221.618 392.923C208.338 394.735 192.342 399.586 169.268 401.715C167.96 401.934 166.641 402.135 165.265 402.47C164.631 402.697 163.99 402.944 163.362 403.359C162.757 403.725 162.048 404.592 162.18 405.516C162.503 407.376 163.967 408.12 165.114 408.833C166.332 409.515 167.603 410.023 168.88 410.475C171.434 411.366 174.045 412.02 176.649 412.595C214.675 418.865 251.525 420.219 290.386 422.439C293.291 422.575 296.367 422.714 299.371 422.84C301.529 422.931 308.576 422.166 313.766 422.474C321.416 422.931 325.622 423.71 331.11 424.049C354.062 425.479 375.164 426.139 397.301 427.381C405.732 427.852 402.731 428.258 412.783 428.817C422.799 429.373 429.538 428.982 443.107 430.046C453.361 430.852 463.545 432.898 477.156 433.778C477.764 432.312 487.119 432.826 503.771 433.288C506.96 433.376 503.572 432.68 505.081 432.695C511.264 432.745 516.905 433.468 522.792 433.479C524.214 433.482 524.306 432.975 525.465 432.949C535.391 432.707 551.663 434.699 554.384 435.041C565.118 436.359 570.081 435.952 578.331 436.684C586.539 437.414 574.143 437.138 583.825 437.828C587.397 438.084 591.374 438.348 595.215 438.594C612.825 439.717 632.853 440.738 649.344 441.805C657.396 442.335 651.947 441.298 653.099 441.357C663.733 442.138 674.778 442.413 683.159 445.096C687.634 446.916 691.794 447.956 695.043 448.4C705.338 454.692 704.746 451.085 728.058 455.544C729.905 455.864 732.059 457.881 724.852 457.044C717.657 456.182 706.931 453.757 697.113 451.497C695.271 451.115 686.505 449.559 681.912 447.977L682.095 448.049C680.925 447.759 680.149 447.631 679.797 447.557C666.555 445.858 664.063 443.944 663.411 443.582C654.901 441.415 638.237 442.117 633.891 441.984C619.794 441.546 607.273 440.813 595.129 440.229C590.201 439.994 585.251 439.782 580.282 439.633C569.414 439.308 568.207 440.874 559.675 440.38C531.201 438.739 521.382 435.966 494.429 436.544C488.668 436.667 494.269 438.735 473.731 436.276C472.45 436.122 457.186 434.054 448.31 434.402C447.193 434.446 447.201 434.965 445.733 434.932C435.9 434.703 429.375 433.951 418.664 433.588C407.954 433.226 395.099 432.845 382.886 432.02C375.513 431.523 366.115 430.054 362.633 429.63C352.686 428.414 342.015 428.95 335.864 427.787C329.717 426.619 341.955 426.036 325.656 424.599C324.984 425.909 323.538 427.211 322.471 428.506C311.663 427.889 300.892 427.228 290.145 426.537C265.314 424.924 240.846 423.252 215.79 421.274C211.333 420.912 215.882 422.02 211.052 421.638C198.835 420.586 187.598 419.567 175.683 416.935C173.011 416.313 170.308 415.615 167.487 414.609C166.061 414.089 164.623 413.519 163.031 412.623C162.235 412.164 161.393 411.637 160.459 410.779C159.593 409.914 158.222 408.637 157.903 405.88C157.774 404.738 158.093 403.147 158.78 402.062C159.455 400.957 160.207 400.352 160.806 399.922C162.011 399.101 162.859 398.81 163.653 398.511C165.206 397.965 166.494 397.66 167.792 397.34C167.943 397.303 168.092 397.267 168.245 397.231C184.997 394.212 201.833 392.181 218.584 390.129C229.12 390.575 253.763 387.541 272.057 385.851C278.267 385.277 277.963 385.721 282.56 385.396C299.48 384.206 291.594 383.627 296.113 382.961C313.484 380.439 317.033 382.294 333.241 381.253C335.674 381.101 338.428 380.876 341.631 380.55C342.969 380.415 357.956 377.289 360.14 376.971C373.474 374.99 362.417 377.321 370.771 376.621C386.227 375.324 396.665 374.693 414.708 372.441C419.796 371.799 432.415 369.534 442.555 369.336C443.905 369.308 443.217 369.92 444.299 369.846C463.815 368.467 464.25 366.712 475.246 365.056C486.339 363.391 503.59 362.885 507.173 362.875C516.429 362.851 500.165 363.938 499.684 364.071C493.932 365.663 506.571 364.249 516.072 363.407C517.604 364.936 531.038 363.521 526.023 362.517C525.448 362.41 517.994 363.296 516.072 363.407C524.328 360.952 539.024 359.304 555.435 359.237C563.101 359.209 556.021 360.743 579.091 358.178C589.568 357.014 585.424 356.263 594.638 355.046C615.729 352.263 643.308 350.64 665.111 348.331C673.01 347.495 665.249 347.623 670.643 347.03C684.998 345.45 697.721 344.676 712.076 343.022C713.377 342.871 710.12 342.529 714.605 342.079C748.63 338.657 778.225 336.165 813.713 332.66C830.778 330.975 861.446 327.558 879.196 325.851C893.579 324.467 909.302 323.122 924.653 321.777C942.57 320.206 960.083 318.624 974.184 317.022C991.228 315.082 987.516 314.804 994.789 313.579C1008.89 311.217 1034.01 309.956 1037.43 309.763C1037.42 309.782 1022.92 311.612 1030.7 311.055C1035.44 311.218 1037.22 309.79 1037.43 309.763C1038.41 309.712 1044.37 309.084 1051.36 308.209C1054.82 307.773 1058.49 307.284 1061.9 306.732C1063.51 306.47 1065.23 306.163 1066.5 305.858C1066.67 305.818 1066.81 305.781 1066.94 305.747C1067.09 305.709 1067.24 305.664 1067.35 305.632C1067.53 305.585 1067.82 305.45 1067.53 305.591C1067.43 305.644 1067.33 305.697 1067.08 305.891C1066.76 306.201 1066.23 306.514 1065.77 307.916C1065.53 308.7 1065.58 309.688 1065.84 310.39C1066.09 311.094 1066.33 311.391 1066.56 311.683C1066.79 311.95 1066.99 312.127 1067.11 312.218C1067.22 312.302 1067.3 312.36 1067.37 312.403C1067.64 312.569 1067.61 312.537 1067.59 312.531C1067.55 312.514 1067.46 312.482 1067.35 312.441C1066.39 312.092 1065.33 311.929 1064.62 311.821C1061.69 311.445 1063.25 312.314 1061.68 312.132C1022.88 309.208 982.845 308.071 942.832 305.813C942.108 305.768 943.234 305.119 941.526 305.021C918.684 303.68 903.791 303.865 884.847 303.556C884.64 303.553 884.431 303.55 884.222 303.547C865.099 303.231 849.891 302.419 838.623 300.744C824.179 300.286 803.442 298.89 791.498 298.072C779.637 297.257 777.808 298.543 776.761 298.526C743.989 298.031 725.056 296.473 691.086 294.955C674.984 294.233 642.897 293.114 625.37 292.543C611.581 292.097 603.21 291.434 590.485 291.115C588.76 291.071 590.476 291.748 589.949 291.75C575.691 291.889 582.588 290.69 579.661 290.305C569.067 288.907 562.504 288.124 544.275 287.825C540.075 287.755 527.743 289.38 520.083 289.188C510.129 288.934 513.925 288.326 503.477 288.078C502.585 288.057 502.746 288.535 496.319 288.248C466.457 286.918 433.91 285.284 402.892 284.018C398.671 283.844 404.082 284.822 397.934 284.58C369.193 283.451 337.66 282.07 309.667 280.491C302.779 280.1 307.124 279.767 305.636 279.546C296.699 278.212 283.313 278.984 281.31 278.92C262.344 278.315 245.098 277.515 228.377 276.646C199.222 275.127 171.589 273.438 138.557 271.999C135.647 271.881 113.698 272.102 103.997 270.218C103.39 270.096 93.7621 268.205 85.1852 268.481C84.6881 268.498 90.6378 269.59 80.1079 268.768C69.509 267.892 52.6236 267.168 37.973 264.283C35.299 263.718 30.3626 262.549 24.0609 260.482C19.5809 258.948 14.4823 257.504 8.26349 254.497C8.07497 254.39 7.21396 254.034 5.69395 253.057C4.93773 252.549 4.00823 251.928 2.85767 250.679C2.28086 250.027 1.62141 249.214 1.03052 247.868C0.446313 246.566 0.00968402 244.427 0.543564 242.312C2.1631 236.999 4.91136 235.574 7.00038 233.863C9.22268 232.285 11.359 231.164 13.4627 230.199C17.6425 228.305 21.5114 227.205 24.0826 226.945C25.4074 226.927 24.5822 228.425 40.5397 223.796C43.614 222.954 37.9062 223.782 46.0142 221.825C49.5064 221.003 53.3375 220.229 57.3822 219.49C67.6912 217.573 79.5326 215.965 90.6192 214.158C93.3115 213.699 104.615 211.324 113.981 211.355C115.446 211.359 112.748 212.167 117.58 211.795C140.687 210.043 164.921 208.006 188.328 206.933C196.642 206.557 192.374 207.729 201.137 207.446C209.778 207.168 227.152 206.417 236.253 205.511C245.22 204.61 235.29 203.687 248.873 202.847C252.325 202.635 255.841 202.426 259.423 202.221C314.805 199.046 369.836 197.344 425.223 195.04C433.968 194.678 426.728 194.472 439.57 193.906C487.051 191.803 568.932 187.904 610.196 187.303C643.162 186.822 601.764 189.211 626.963 188.527C639.122 188.195 652.273 185.961 655.142 185.789C683.849 184.057 703.879 183.973 729.588 182.656C734.968 182.38 729.66 181.92 734.246 181.693C745.363 181.134 757.328 180.759 768.37 180.337C772.729 180.17 776.785 180.003 780.807 179.81C787.58 179.484 786.183 179.023 792.332 178.79C806.963 178.227 819.966 177.855 834.168 177.669C835.476 177.651 826.786 178.716 837.569 178.226C855.049 177.393 876.872 176.911 896.722 174.883C901.488 174.275 903.048 173.582 909.29 172.448C910.596 172.135 912.088 171.786 913.742 171.335C914.836 171.027 914.859 171.429 915.913 171.243C916.427 171.145 917.227 170.898 918.297 170.27C919.347 169.656 920.645 168.57 920.922 167.33C921 167.28 920.359 167.836 920.44 169.984C920.49 170.942 920.998 172.119 921.372 172.627C921.764 173.211 922.211 173.603 922.402 173.761C925.888 174.547 897.393 172.844 886.031 171.26C882.719 170.741 874.669 169.022 867.433 168.756C866.456 168.725 870.327 169.608 864.361 169.3C845.69 168.334 826.273 167.227 806.824 166.329C804.545 166.224 802.229 166.121 799.879 166.02C794.06 165.77 802.675 166.884 794.027 166.495C770.512 165.439 740.994 163.804 717.906 162.472C709.333 161.977 715.275 161.715 714.661 161.626C704.856 160.174 698.743 161.195 695.513 161.116C674.926 160.583 659.286 159.22 640.345 158.487C635.095 158.283 638.787 159.084 637.739 159.091C626.923 159.126 635.017 158.382 628.194 157.936C609.059 156.682 587.706 155.733 568.339 154.912C561.223 154.611 569.185 155.708 562.8 155.43C525.014 153.797 485.742 151.915 448.868 149.812C441.946 149.416 446.33 149.059 444.893 148.865C434.945 147.511 420.275 148.053 416.906 148.014C401.601 147.837 395.62 147.065 382.186 146.534C366.9 145.932 350.601 145.237 334.064 144.491C289.361 141.955 244.17 141.888 199.984 135.657C192.544 133.304 184.762 132.793 176.019 125.369C174.455 123.811 172.954 122.204 171.511 120.49C167.77 115.647 163.246 110.756 163.089 101.364C163.103 99.8948 163.682 97.2488 165.067 95.4237C166.405 93.5951 167.796 92.6839 168.901 92.0046C171.131 90.7088 172.858 90.1396 174.565 89.5548C245.654 79.9237 300.426 79.2383 368.777 73.9418C369.706 73.8784 370.64 73.8145 371.582 73.7501C376.43 73.4193 371.48 73.0031 375.68 72.7071C430.395 68.8962 484.26 65.6744 539.01 61.6868C543.511 61.3601 536.971 61.1044 544.197 60.5556C558.965 59.4288 577.72 58.1514 592.695 57.3028C600.002 56.8873 590.257 58.1938 597.608 57.7627C614.684 56.7618 633.102 55.4567 650.569 54.0137C658.082 53.3908 646.696 53.5369 656.45 52.7829C722.354 47.2858 787.933 43.1874 853.311 33.4912C855.52 33.0831 857.272 33.1056 860.078 32.752C861.399 32.5836 862.449 32.4823 864.158 32.0127C864.916 31.8003 865.407 31.6518 865.962 31.3904C866.215 31.2771 866.252 31.1872 865.917 31.5045C865.828 31.5944 865.747 31.6765 865.591 31.882C865.37 32.1784 865.085 32.6471 864.901 33.3144C864.448 34.6704 865.02 36.5995 865.605 37.2613C865.795 37.5224 865.96 37.6897 866.075 37.7994C866.16 38.14 866.044 38.3117 865.95 38.522C865.848 38.7235 865.74 38.925 865.633 39.1138C776.362 25.4204 676.276 26.0455 580.482 22.4423C576.409 22.334 583.43 23.2917 575.541 23.0868C529.786 21.9084 485.448 21.1789 438.574 19.518C433.906 19.3549 436.489 18.0345 422.648 17.9857C420.249 17.9777 399.571 17.7881 394.307 17.9946C393.594 18.0269 397.288 18.7292 390.738 18.6336C372.653 18.3641 354.309 18.0518 336.065 17.6976C314.909 17.2873 293.816 16.8191 273.133 16.3062C266.856 16.1499 273.532 15.5685 269.091 15.4519C237.683 14.6378 203.577 14.682 173.583 13.8628C153.496 13.3462 161.022 12.2087 150.301 11.0606C148.779 10.8818 136.421 10.9914 135.751 10.3664C134.049 8.71021 140.076 6.7352 137.541 4.98271C137.025 4.5437 120.281 5.57441 130.148 4.27454C130.848 4.14737 142.983 3.58175 146.024 3.27599C148.054 3.04294 144.318 2.38111 148.581 2.07535C152.829 1.77465 157.473 2.34377 164.523 2.03916C171.45 1.73752 168.495 0.932319 182.452 0.946244ZM737.791 294.41C726.766 293.302 725.062 295.626 737.007 295.546C737.592 295.539 738.364 294.466 737.791 294.41ZM251.951 422.016C237.564 420.015 227.647 420.83 237.732 422.369C247.915 423.896 256.301 422.617 251.951 422.016ZM401.77 429.72C384.941 427.999 382.09 431.245 400.209 431.515C401.265 431.532 402.757 429.82 401.77 429.72ZM199.761 11.0177C199.599 10.9831 190.668 10.8626 190.456 10.8933C185.693 11.6058 203.55 11.845 199.761 11.0177ZM550.458 436.586C545.148 435.851 530.011 435.6 536.502 436.507C541.804 437.24 556.972 437.495 550.458 436.586ZM161.335 267.023C161.249 266.983 154.696 266.607 154.839 266.816C155.267 267.49 164.194 267.773 161.335 267.023ZM801.269 461.53C781.335 461.368 765.615 459.848 761.483 458.895L761.502 458.896C760.098 458.543 760.022 458.309 761.553 458.251L761.517 458.249C763.926 458.083 770.36 458.279 781.988 458.643C789.342 458.899 766.113 459.084 775.466 459.613C792.606 460.573 804.007 458.793 821.514 459.772C824.685 459.953 803.405 461.579 801.203 461.534C801.225 461.532 801.247 461.531 801.269 461.53ZM731.548 291.276C731.338 291.236 722.488 290.841 722.265 290.864C717.438 291.425 735.275 292.221 731.548 291.276ZM217.406 212.918C217.947 212.947 238.561 211.867 239.136 211.781C249.798 209.946 208.216 212.117 217.406 212.918ZM813.406 339.303C803.914 341.012 792.248 342.256 784.564 342.051C794.035 341.166 803.845 340.203 813.406 339.303Z" fill="#AAF683"/>
</svg>
